<svg xmlns="http://www.w3.org/2000/svg" viewBox="0 0 410 404"><path fill="#41D1FF" d="M399.641 59.525L215.643 388.545a11.33 11.33 0 01-19.665 0L10.411 59.525c-2.433-4.351 1.276-9.693 6.226-8.963l184.774 27.149a11.33 11.33 0 003.302 0l188.702-27.192c4.958-.714 8.662 4.635 6.226 8.994z"/><path fill="#BD34FE" d="M292.965.45L156.052 27.295a5.66 5.66 0 00-4.518 3.772L57.12 281.484a5.66 5.66 0 006.879 7.068l37.678-9.097a5.66 5.66 0 004.113-3.87l24.2-85.951a5.66 5.66 0 015.467-4.118h66.06a5.66 5.66 0 005.498-4.329l13.243-58.53a5.66 5.66 0 00-5.521-6.912h-47.478a5.66 5.66 0 01-5.52-6.912l17.902-78.648a5.66 5.66 0 014.518-4.267l79.977-14.657a5.66 5.66 0 004.57-4.278l5.527-24.344A5.66 5.66 0 00292.965.45z"/><path fill="#FFEA83" d="M322.197 82.25l-72.687 14.494a2.83 2.83 0 00-2.238 2.127l-48.963 216.47a2.83 2.83 0 003.436 3.498l22.809-5.562a2.83 2.83 0 002.089-2.145l16.784-74.53a2.83 2.83 0 012.76-2.19h40.531a2.83 2.83 0 002.767-2.19l9.913-44.045a2.83 2.83 0 00-2.763-3.47h-30.69a2.83 2.83 0 01-2.763-3.47l12.05-53.323a2.83 2.83 0 012.238-2.148l51.592-10.305a2.83 2.83 0 002.255-2.139l3.549-15.758a2.83 2.83 0 00-3.438-3.5z"/></svg>
